<svg width="512" height="512" viewBox="0 0 512 512" fill="none" xmlns="http://www.w3.org/2000/svg">
  <rect width="512" height="512" rx="128" fill="#0C0C0D"/>
  <path d="M256 96C194.144 96 144 146.144 144 208C144 269.856 194.144 320 256 320C317.856 320 368 269.856 368 208C368 146.144 317.856 96 256 96Z" fill="#D4AF37"/>
  <path d="M256 128C300.183 128 336 163.817 336 208C336 252.183 300.183 288 256 288C211.817 288 176 252.183 176 208C176 163.817 211.817 128 256 128Z" fill="#0C0C0D"/>
  <rect x="240" y="352" width="32" height="64" rx="16" fill="#D4AF37"/>
  <rect x="208" y="368" width="96" height="32" rx="16" fill="#3B82F6"/>
  <circle cx="256" cy="208" r="24" fill="#D4AF37"/>
</svg>